<?xml version="1.0" encoding="UTF-8"?>
<svg width="577px" height="26px" viewBox="0 0 577 26" version="1.1" xmlns="http://www.w3.org/2000/svg" xmlns:xlink="http://www.w3.org/1999/xlink">
    <title>DESIGNERGRAPHIQUE</title>
    <g id="Welcome" stroke="none" stroke-width="1" fill="none" fill-rule="evenodd">
        <g id="REALHOME" transform="translate(-431.000000, -611.000000)" fill="#FFFFFF" fill-rule="nonzero">
            <g id="logotype" transform="translate(427.000000, 145.000000)">
                <path d="M12.0933594,489 C18.7686523,489 22.4620117,484.867676 22.4620117,478.071289 C22.4620117,471.290039 18.7535156,467.157715 12.0933594,467.157715 L4.90341797,467.157715 L4.90341797,489 L12.0933594,489 Z M11.9722656,487.123047 L6.97714844,487.123047 L6.97714844,469.034668 L11.9722656,469.034668 C17.3003906,469.034668 20.3428711,472.44043 20.3428711,478.086426 C20.3428711,483.732422 17.3155273,487.123047 11.9722656,487.123047 Z M54.7526367,489 L54.7526367,487.123047 L43.6271484,487.123047 L43.6271484,478.737305 L54.1925781,478.737305 L54.1925781,476.890625 L43.6271484,476.890625 L43.6271484,469.034668 L54.7526367,469.034668 L54.7526367,467.157715 L41.553418,467.157715 L41.553418,489 L54.7526367,489 Z M81.0037109,489.454102 C85.7869141,489.454102 88.9202148,486.895996 88.9202148,483.081543 C88.9202148,479.993652 87.0735352,478.20752 82.562793,477.087402 L80.3982422,476.54248 C77.0681641,475.709961 75.7209961,474.60498 75.7209961,472.697754 C75.7209961,470.321289 77.8855469,468.595703 81.0188477,468.595703 C84.0461914,468.595703 86.1501953,470.169922 86.4832031,472.500977 L88.5720703,472.500977 C88.3450195,469.170898 85.2571289,466.703613 81.0793945,466.703613 C76.6443359,466.703613 73.6018555,469.231445 73.6018555,472.758301 C73.6018555,475.725098 75.3274414,477.435547 79.4294922,478.449707 L81.9270508,479.085449 C85.3025391,479.917969 86.8010742,481.25 86.8010742,483.308594 C86.8010742,485.730469 84.4548828,487.562012 81.1853516,487.562012 C77.8552734,487.562012 75.3577148,485.836426 75.0701172,483.32373 L72.98125,483.32373 C73.2385742,486.97168 76.4929688,489.454102 81.0037109,489.454102 Z M109.918848,489 L109.918848,467.157715 L107.845117,467.157715 L107.845117,489 L109.918848,489 Z M138.788574,489.454102 C144.313477,489.454102 147.900879,485.942383 147.900879,480.538574 L147.900879,478.116699 L139.182129,478.116699 L139.182129,479.948242 L145.842285,479.948242 L145.842285,480.705078 C145.842285,484.822266 143.072266,487.531738 138.788574,487.531738 C134.126465,487.531738 131.129395,483.808105 131.129395,478.071289 C131.129395,472.349609 134.126465,468.625977 138.743164,468.625977 C142.194336,468.625977 144.676758,470.427246 145.584961,473.54541 L147.688965,473.54541 C146.901855,469.382812 143.405273,466.703613 138.743164,466.703613 C132.870117,466.703613 129.010254,471.229492 129.010254,478.071289 C129.010254,484.958496 132.870117,489.454102 138.788574,489.454102 Z M169.096289,489 L169.096289,470.851074 L169.293066,470.851074 L182.068457,489 L184.066504,489 L184.066504,467.157715 L182.023047,467.157715 L182.023047,485.291504 L181.82627,485.291504 L169.096289,467.157715 L167.052832,467.157715 L167.052832,489 L169.096289,489 Z M217.235059,489 L217.235059,487.123047 L206.10957,487.123047 L206.10957,478.737305 L216.675,478.737305 L216.675,476.890625 L206.10957,476.890625 L206.10957,469.034668 L217.235059,469.034668 L217.235059,467.157715 L204.03584,467.157715 L204.03584,489 L217.235059,489 Z M238.596973,489 L238.596973,480.054199 L244.500293,480.054199 L244.500293,480.054199 L249.525684,489 L251.947559,489 L246.649707,479.721191 C249.571094,478.949219 251.326953,476.633301 251.326953,473.54541 C251.326953,469.655273 248.602344,467.157715 244.348926,467.157715 L236.523242,467.157715 L236.523242,489 L238.596973,489 Z M244.182422,478.20752 L238.596973,478.20752 L238.596973,469.004395 L244.091602,469.004395 C247.270313,469.004395 249.207813,470.745117 249.207813,473.605957 C249.207813,476.527344 247.345996,478.20752 244.182422,478.20752 Z M302.36084,489.454102 C307.885742,489.454102 311.473145,485.942383 311.473145,480.538574 L311.473145,478.116699 L302.754395,478.116699 L302.754395,479.948242 L309.414551,479.948242 L309.414551,480.705078 C309.414551,484.822266 306.644531,487.531738 302.36084,487.531738 C297.69873,487.531738 294.70166,483.808105 294.70166,478.071289 C294.70166,472.349609 297.69873,468.625977 302.31543,468.625977 C305.766602,468.625977 308.249023,470.427246 309.157227,473.54541 L311.26123,473.54541 C310.474121,469.382812 306.977539,466.703613 302.31543,466.703613 C296.442383,466.703613 292.58252,471.229492 292.58252,478.071289 C292.58252,484.958496 296.442383,489.454102 302.36084,489.454102 Z M332.698828,489 L332.698828,480.054199 L338.602148,480.054199 L338.602148,480.054199 L343.627539,489 L346.049414,489 L340.751563,479.721191 C343.672949,478.949219 345.428809,476.633301 345.428809,473.54541 C345.428809,469.655273 342.704199,467.157715 338.450781,467.157715 L330.625098,467.157715 L330.625098,489 L332.698828,489 Z M338.284277,478.20752 L332.698828,478.20752 L332.698828,469.004395 L338.193457,469.004395 C341.372168,469.004395 343.309668,470.745117 343.309668,473.605957 C343.309668,476.527344 341.447852,478.20752 338.284277,478.20752 Z M365.322461,489 L367.744336,482.30957 L376.917188,482.30957 L379.339063,489 L381.51875,489 L373.360059,467.157715 L371.301465,467.157715 L363.127637,489 L365.322461,489 Z M376.296582,480.523438 L368.364941,480.523438 L372.224805,469.867188 L372.421582,469.867188 L376.296582,480.523438 Z M401.881641,489 L401.881641,480.765625 L407.542773,480.765625 C411.705371,480.765625 414.566211,478.010742 414.566211,473.999512 C414.566211,469.927734 411.750781,467.157715 407.573047,467.157715 L399.80791,467.157715 L399.80791,489 L401.881641,489 Z M407.073535,478.918945 L401.881641,478.918945 L401.881641,469.004395 L407.073535,469.004395 C410.479297,469.004395 412.462207,470.851074 412.462207,473.999512 C412.462207,477.072266 410.433887,478.918945 407.073535,478.918945 Z M435.504297,489 L435.504297,478.752441 L448.279688,478.752441 L448.279688,489 L450.353418,489 L450.353418,467.157715 L448.279688,467.157715 L448.279688,476.875488 L435.504297,476.875488 L435.504297,467.157715 L433.430566,467.157715 L433.430566,489 L435.504297,489 Z M472.396484,489 L472.396484,467.157715 L470.322754,467.157715 L470.322754,489 L472.396484,489 Z M509.939551,491.558105 L507.169531,487.728516 C509.80332,485.942383 511.256445,482.506348 511.256445,478.086426 C511.256445,471.078125 507.472266,466.703613 501.387305,466.703613 C495.302344,466.703613 491.487891,471.062988 491.487891,478.086426 C491.487891,485.125 495.256934,489.454102 501.387305,489.454102 C502.88584,489.454102 504.278418,489.181641 505.489355,488.666992 L507.608496,491.558105 L509.939551,491.558105 Z M501.402441,487.531738 C496.619238,487.531738 493.607031,483.898926 493.607031,478.086426 C493.607031,472.289062 496.619238,468.625977 501.387305,468.625977 C506.140234,468.625977 509.137305,472.289062 509.137305,478.086426 C509.137305,481.719238 508.002051,484.549805 505.958594,486.018066 L503.718359,483.020996 L501.372168,483.020996 L504.308691,487.001953 C503.400488,487.365234 502.431738,487.531738 501.402441,487.531738 Z M538.794141,489.393555 C544.016309,489.393555 547.255566,486.169434 547.255566,481.431641 L547.255566,467.157715 L545.181836,467.157715 L545.181836,481.29541 C545.181836,484.958496 542.744824,487.486328 538.794141,487.486328 C534.843457,487.486328 532.406445,484.958496 532.406445,481.29541 L532.406445,467.157715 L530.347852,467.157715 L530.347852,481.431641 C530.347852,486.169434 533.571973,489.393555 538.794141,489.393555 Z M580.408984,489 L580.408984,487.123047 L569.283496,487.123047 L569.283496,478.737305 L579.848926,478.737305 L579.848926,476.890625 L569.283496,476.890625 L569.283496,469.034668 L580.408984,469.034668 L580.408984,467.157715 L567.209766,467.157715 L567.209766,489 L580.408984,489 Z" id="DESIGNERGRAPHIQUE"></path>
            </g>
        </g>
    </g>
</svg>