<?xml version="1.0" encoding="UTF-8"?>
<svg width="61px" height="106px" viewBox="0 0 61 106" version="1.1" xmlns="http://www.w3.org/2000/svg" xmlns:xlink="http://www.w3.org/1999/xlink">
    <title>Mu_logotype</title>
    <defs>
        <polygon id="path-1" points="0.0127083333 0.473365269 19.911329 0.473365269 19.911329 92.6622517 0.0127083333 92.6622517"></polygon>
        <polygon id="path-3" points="0 106 60.2988506 106 60.2988506 0 0 0"></polygon>
    </defs>
    <g id="Welcome" stroke="none" stroke-width="1" fill="none" fill-rule="evenodd">
        <g id="My-works" transform="translate(-104.000000, -99.000000)">
            <g id="Group-9" transform="translate(104.000000, 99.000000)">
                <path d="M24.7917074,0 C21.6460292,0 19.2542312,1.27429886 17.2413064,3.31161188 C15.4783864,1.14647768 13.2141682,0 10.3197834,0 C8.55686335,0 6.04006303,0.892139631 4.90730959,2.41947225 L4.90730959,0 L0,0 L0,93.3642384 L4.90730959,93.3642384 L4.90730959,9.80831875 C4.90730959,7.13320416 7.04652542,4.96806996 9.81590786,4.96806996 C12.5840016,4.96806996 14.8495085,7.13320416 14.8495085,9.80831875 L14.8495085,93.3642384 L19.7581068,93.3642384 L19.7581068,9.80831875 C19.7581068,7.13320416 21.8973226,4.96806996 24.6654164,4.96806996 C27.3085077,4.96806996 29.4477236,7.13320416 29.4477236,9.80831875 L29.4477236,93.3642384 L34.3563218,93.3642384 L34.3563218,9.80831875 C34.3563218,4.07593033 29.9515991,0 24.7917074,0" id="Fill-1" fill="#FFFFFF"></path>
                <g id="Group-5" transform="translate(40.666667, 13.337748)">
                    <mask id="mask-2" fill="white">
                        <use xlink:href="#path-1"></use>
                    </mask>
                    <g id="Clip-4"></g>
                    <path d="M14.9051221,0.473365269 L14.9051221,82.9113943 C14.9051221,85.5709784 12.7227945,87.8506219 10.0264368,87.8506219 C7.20255747,87.8506219 5.01891523,85.5709784 5.01891523,82.9113943 L5.01891523,0.473365269 L0.0127083333,0.473365269 L0.0127083333,82.9113943 C0.0127083333,88.483424 4.50619971,92.6627703 10.0264368,92.6627703 C15.5466739,92.6627703 19.9126437,88.1034834 19.9126437,82.9113943 L19.9126437,0.473365269 L14.9051221,0.473365269 Z" id="Fill-3" fill="#FFFFFF" mask="url(#mask-2)"></path>
                </g>
                <mask id="mask-4" fill="white">
                    <use xlink:href="#path-3"></use>
                </mask>
                <g id="Clip-7"></g>
                <polygon id="Fill-6" fill="#FFFFFF" mask="url(#mask-4)" points="11.2183908 106 23.8390805 106 23.8390805 101.086093 11.2183908 101.086093"></polygon>
                <polygon id="Fill-8" fill="#FFFFFF" mask="url(#mask-4)" points="44.1724138 5.61589404 56.7931034 5.61589404 56.7931034 0.701986755 44.1724138 0.701986755"></polygon>
            </g>
        </g>
    </g>
</svg>