<?xml version="1.0" encoding="UTF-8"?>
<svg width="405px" height="71px" viewBox="0 0 405 71" version="1.1" xmlns="http://www.w3.org/2000/svg" xmlns:xlink="http://www.w3.org/1999/xlink">
    <title>Mu_logotypetext</title>
    <defs>
        <polygon id="path-1" points="0 0.688876736 25.6558064 0.688876736 25.6558064 69.3435332 0 69.3435332"></polygon>
        <polygon id="path-3" points="0.113007612 0.42667619 24.9862137 0.42667619 24.9862137 71 0.113007612 71"></polygon>
        <polygon id="path-5" points="0.332778012 0.426507143 27.2282888 0.426507143 27.2282888 71 0.332778012 71"></polygon>
        <polygon id="path-7" points="0.0740231092 0.426127851 23.5572164 0.426127851 23.5572164 70.0398617 0.0740231092 70.0398617"></polygon>
        <polygon id="path-9" points="0.172039916 0.426127851 23.6552332 0.426127851 23.6552332 70.0398617 0.172039916 70.0398617"></polygon>
        <polygon id="path-11" points="0.235840201 0.689553337 17.6116983 0.689553337 17.6116983 69.3442098 0.235840201 69.3442098"></polygon>
    </defs>
    <g id="Welcome" stroke="none" stroke-width="1" fill="none" fill-rule="evenodd">
        <g id="My-works" transform="translate(-194.000000, -99.000000)">
            <g id="Group-33" transform="translate(194.000000, 99.000000)">
                <g id="Group-3" transform="translate(0.000000, 0.696078)">
                    <mask id="mask-2" fill="white">
                        <use xlink:href="#path-1"></use>
                    </mask>
                    <g id="Clip-2"></g>
                    <path d="M23.4504016,0.688876736 C22.4479448,0.688876736 21.6477078,1.37562628 21.3469708,2.25858998 L12.8278168,28.5428293 L4.3086628,2.25858998 C4.00792578,1.37562628 3.20768875,0.688876736 2.20523201,0.688876736 C1.00228391,0.688876736 -0.00017283737,1.66994752 -0.00017283737,2.84723245 L-0.00017283737,67.186869 C-0.00017283737,68.3624625 1.00228391,69.3435332 2.20523201,69.3435332 C3.40645173,69.3435332 4.40890848,68.3624625 4.40890848,67.186869 L4.40890848,16.2828276 L10.6224119,35.4086333 C11.0233946,36.7804409 11.9256057,37.1745607 12.8278168,37.1745607 C13.7282995,37.1745607 14.6305106,36.7804409 15.0314933,35.4086333 L21.2467251,16.2828276 L21.2467251,67.186869 C21.2467251,68.3624625 22.2474535,69.3435332 23.4504016,69.3435332 C24.6533497,69.3435332 25.6558064,68.3624625 25.6558064,67.186869 L25.6558064,2.84723245 C25.6558064,1.66994752 24.6533497,0.688876736 23.4504016,0.688876736" id="Fill-1" fill="#FFFFFF" mask="url(#mask-2)"></path>
                </g>
                <g id="Group-6" transform="translate(33.633218, 0.000000)">
                    <mask id="mask-4" fill="white">
                        <use xlink:href="#path-3"></use>
                    </mask>
                    <g id="Clip-5"></g>
                    <path d="M20.5737277,59.1386048 C20.5737277,63.3529619 16.9638264,66.686581 12.5496107,66.686581 C8.13712467,66.686581 4.52722333,63.3529619 4.52722333,59.1386048 L4.52722333,12.2853667 C4.52722333,8.07100952 8.13712467,4.73739048 12.5496107,4.73739048 C16.9638264,4.73739048 20.5737277,8.07100952 20.5737277,12.2853667 L20.5737277,59.1386048 Z M24.9862137,59.1386048 L24.9862137,12.2853667 C24.9862137,5.71786667 19.3698507,0.42667619 12.5496107,0.42667619 C5.72937064,0.42667619 0.113007612,5.71786667 0.113007612,12.2853667 L0.113007612,59.1386048 C0.113007612,65.7077952 5.72937064,71.0006762 12.5496107,71.0006762 C19.3698507,71.0006762 24.9862137,65.7077952 24.9862137,59.1386048 L24.9862137,59.1386048 Z" id="Fill-4" fill="#FFFFFF" mask="url(#mask-4)"></path>
                </g>
                <path d="M88.1880269,0 C86.9864053,0 85.985054,1.00029149 85.985054,2.20064127 L85.985054,58.3997765 C85.985054,63.3012048 82.9827264,66.6004421 78.4766454,66.6004421 C73.9722909,66.6004421 70.9699633,63.3012048 70.9699633,58.3997765 L70.9699633,2.20064127 C70.9699633,1.00029149 69.968612,0 68.7669904,0 C67.5653688,0 66.5657439,1.00029149 66.5657439,2.20064127 L66.5657439,58.3997765 C66.5657439,66.0002672 71.3705039,71 78.4766454,71 C85.5845134,71 90.3892734,66.0002672 90.3892734,58.3997765 L90.3892734,2.20064127 C90.3892734,1.00029149 89.3896485,0 88.1880269,0" id="Fill-7" fill="#FFFFFF"></path>
                <path d="M119.105758,0 C117.952686,0 116.993449,0.984744839 116.993449,2.16643865 L116.993449,52.5700939 L101.526379,1.47711726 C101.238111,0.590846903 100.469396,0 99.5085025,0 C98.3570872,0 97.3961938,0.984744839 97.3961938,2.16643865 L97.3961938,66.7470239 C97.3961938,67.9270199 98.3570872,68.9117647 99.5085025,68.9117647 C100.661575,68.9117647 101.622468,67.9270199 101.622468,66.7470239 L101.622468,16.3416708 L117.089538,67.4346474 C117.377806,68.3226156 118.144864,68.9117647 119.105758,68.9117647 C120.25883,68.9117647 121.219723,67.9270199 121.219723,66.7470239 L121.219723,2.16643865 C121.219723,0.984744839 120.25883,0 119.105758,0" id="Fill-9" fill="#FFFFFF"></path>
                <path d="M133.480873,0 C132.142663,0 131.029412,0.984744839 131.029412,2.16643865 L131.029412,66.7470239 C131.029412,67.9270199 132.142663,68.9117647 133.480873,68.9117647 C134.819082,68.9117647 135.934256,67.9270199 135.934256,66.7470239 L135.934256,2.16643865 C135.934256,0.984744839 134.819082,0 133.480873,0" id="Fill-11" fill="#FFFFFF"></path>
                <path d="M157.920231,18.7050584 L147.165783,18.7050584 L147.165783,4.33117946 L157.920231,4.33117946 C161.568529,4.33117946 164.642175,7.58083743 164.642175,11.5181189 C164.642175,15.4554005 161.568529,18.7050584 157.920231,18.7050584 M168.866782,11.5181189 C168.866782,5.21744981 163.873764,0 157.920231,0 L145.052652,0 C143.900035,0 142.941176,0.983047003 142.941176,2.16643865 L142.941176,66.7470239 C142.941176,67.9270199 143.900035,68.9117647 145.052652,68.9117647 C146.205269,68.9117647 147.165783,67.9270199 147.165783,66.7470239 L147.165783,23.0362379 L157.920231,23.0362379 C161.760632,23.0362379 164.544468,25.9904724 164.642175,29.730805 L164.642175,66.7470239 C164.642175,67.9270199 165.602689,68.9117647 166.753651,68.9117647 C167.906268,68.9117647 168.866782,67.9270199 168.866782,66.7470239 L168.866782,29.730805 C168.866782,25.9904724 167.137856,22.7408144 163.873764,20.7713248 C167.137856,18.606584 168.866782,15.2584515 168.866782,11.5181189" id="Fill-13" fill="#FFFFFF"></path>
                <g id="Group-17" transform="translate(192.690311, 0.000000)">
                    <mask id="mask-6" fill="white">
                        <use xlink:href="#path-5"></use>
                    </mask>
                    <g id="Clip-16"></g>
                    <path d="M14.8232738,27.8713881 C9.19427353,26.3026262 5.44040811,22.4804595 5.44040811,18.2644119 L5.44040811,12.2851976 C5.44040811,8.07084048 9.19427353,4.73722143 13.7805334,4.73722143 C18.4710674,4.73722143 22.1206587,8.07084048 22.1206587,12.2851976 C22.1206587,13.461769 23.1633991,14.4422452 24.4128898,14.4422452 C25.6641783,14.4422452 26.7069187,13.461769 26.7069187,12.2851976 C26.7069187,5.7193881 20.9736443,0.426507143 13.7805334,0.426507143 C6.69169658,0.426507143 0.854148208,5.7193881 0.854148208,12.2851976 L0.854148208,18.2644119 C0.854148208,24.2436262 5.64895619,29.7342929 13.4677113,31.9893881 C18.6796155,33.4584119 22.6420289,37.7708167 22.6420289,42.0832214 L22.6420289,58.6481976 C22.6420289,63.05865 18.6796155,66.6864119 13.7805334,66.6864119 C8.77717737,66.6864119 4.91903791,63.1583881 4.91903791,58.6481976 C4.91903791,57.4733167 3.87809535,56.4928405 2.62680688,56.4928405 C1.37551841,56.4928405 0.332778012,57.4733167 0.332778012,58.6481976 C0.332778012,65.511531 6.27460043,71.0005071 13.7805334,71.0005071 C21.1821924,71.0005071 27.2282888,65.511531 27.2282888,58.6481976 L27.2282888,42.0832214 C27.2282888,35.8098643 22.2249328,30.1264833 14.8232738,27.8713881" id="Fill-15" fill="#FFFFFF" mask="url(#mask-6)"></path>
                </g>
                <g id="Group-20" transform="translate(223.520761, 0.000000)">
                    <mask id="mask-8" fill="white">
                        <use xlink:href="#path-7"></use>
                    </mask>
                    <g id="Clip-19"></g>
                    <path d="M19.216229,33.5670378 L4.41671218,33.5670378 L4.41671218,12.7797772 C4.41671218,8.17184704 7.67202731,4.73915046 11.8156197,4.73915046 C15.9592122,4.73915046 19.216229,8.17184704 19.216229,12.7797772 L19.216229,33.5670378 Z M11.8156197,0.425451458 C5.60108193,0.425451458 0.0740231092,5.916075 0.0740231092,12.7797772 L0.0740231092,67.8838577 C0.0740231092,69.0590912 1.0609979,70.0398617 2.24536765,70.0398617 C3.42973739,70.0398617 4.41671218,69.0590912 4.41671218,67.8838577 L4.41671218,37.8807368 L19.216229,37.8807368 L19.216229,67.8838577 C19.216229,69.0590912 20.2032038,70.0398617 21.3875735,70.0398617 C22.5719433,70.0398617 23.5572164,69.0590912 23.5572164,67.8838577 L23.5572164,12.7797772 C23.5572164,5.916075 18.0318592,0.425451458 11.8156197,0.425451458 L11.8156197,0.425451458 Z" id="Fill-18" fill="#FFFFFF" mask="url(#mask-8)"></path>
                </g>
                <path d="M274.048486,28.3531615 C275.662475,26.5806644 276.137178,24.9083372 276.137178,23.2326145 L276.137178,11.4193631 C276.137178,10.2393962 275.187772,9.25467564 274.048486,9.25467564 C272.909199,9.25467564 271.961431,10.2393962 271.961431,11.4193631 L271.961431,23.2326145 C271.961431,25.5959438 270.06262,27.565385 267.973928,27.565385 L261.329726,27.565385 L261.329726,2.16638527 C261.329726,0.984720578 260.380321,0 259.242671,0 C258.103385,0 257.153979,0.984720578 257.153979,2.16638527 L257.153979,66.7453794 C257.153979,67.9270441 258.103385,68.9117647 259.242671,68.9117647 C260.380321,68.9117647 261.329726,67.9270441 261.329726,66.7453794 L261.329726,31.8964577 L272.529437,31.8964577 C274.902951,31.8964577 276.801762,33.8658989 276.801762,36.3260026 L276.801762,66.7453794 C276.801762,67.9270441 277.74953,68.9117647 278.890454,68.9117647 C280.028103,68.9117647 280.977509,67.9270441 280.977509,66.7453794 L280.977509,36.3260026 C280.977509,32.1918739 278.414114,28.9439938 274.048486,28.3531615" id="Fill-21" fill="#FFFFFF"></path>
                <path d="M302.963484,18.7050584 L292.209036,18.7050584 L292.209036,4.33117946 L302.963484,4.33117946 C306.611782,4.33117946 309.685428,7.58083743 309.685428,11.5181189 C309.685428,15.4554005 306.611782,18.7050584 302.963484,18.7050584 M313.910035,11.5181189 C313.910035,5.21744981 308.917016,0 302.963484,0 L290.095904,0 C288.943287,0 287.984429,0.983047003 287.984429,2.16643865 L287.984429,66.7470239 C287.984429,67.9270199 288.943287,68.9117647 290.095904,68.9117647 C291.248522,68.9117647 292.209036,67.9270199 292.209036,66.7470239 L292.209036,23.0362379 L302.963484,23.0362379 C306.803885,23.0362379 309.58772,25.9904724 309.685428,29.730805 L309.685428,66.7470239 C309.685428,67.9270199 310.645942,68.9117647 311.796903,68.9117647 C312.94952,68.9117647 313.910035,67.9270199 313.910035,66.7470239 L313.910035,29.730805 C313.910035,25.9904724 312.181109,22.7408144 308.917016,20.7713248 C312.181109,18.606584 313.910035,15.2584515 313.910035,11.5181189" id="Fill-23" fill="#FFFFFF"></path>
                <g id="Group-27" transform="translate(322.318339, 0.000000)">
                    <mask id="mask-10" fill="white">
                        <use xlink:href="#path-9"></use>
                    </mask>
                    <g id="Clip-26"></g>
                    <path d="M19.3142458,33.5670378 L4.51472899,33.5670378 L4.51472899,12.7797772 C4.51472899,8.17184704 7.77004412,4.73915046 11.9136366,4.73915046 C16.057229,4.73915046 19.3142458,8.17184704 19.3142458,12.7797772 L19.3142458,33.5670378 Z M23.6552332,67.8838577 L23.6552332,12.7797772 C23.6552332,5.916075 18.1298761,0.425451458 11.9136366,0.425451458 C5.69909874,0.425451458 0.172039916,5.916075 0.172039916,12.7797772 L0.172039916,67.8838577 C0.172039916,69.0590912 1.15901471,70.0398617 2.34338445,70.0398617 C3.5277542,70.0398617 4.51472899,69.0590912 4.51472899,67.8838577 L4.51472899,37.8807368 L19.3142458,37.8807368 L19.3142458,67.8838577 C19.3142458,69.0590912 20.3012206,70.0398617 21.4855903,70.0398617 C22.6699601,70.0398617 23.6552332,69.0590912 23.6552332,67.8838577 L23.6552332,67.8838577 Z" id="Fill-25" fill="#FFFFFF" mask="url(#mask-10)"></path>
                </g>
                <path d="M376.960429,0 C375.809014,0 374.84812,0.984744839 374.84812,2.16643865 L374.84812,52.5700939 L359.382707,1.47711726 C359.094439,0.590846903 358.325724,0 357.364831,0 C356.211758,0 355.250865,0.984744839 355.250865,2.16643865 L355.250865,66.7470239 C355.250865,67.9270199 356.211758,68.9117647 357.364831,68.9117647 C358.517903,68.9117647 359.478796,67.9270199 359.478796,66.7470239 L359.478796,16.3416708 L374.94421,67.4346474 C375.232478,68.3226156 376.001192,68.9117647 376.960429,68.9117647 C378.113501,68.9117647 379.074394,67.9270199 379.074394,66.7470239 L379.074394,2.16643865 C379.074394,0.984744839 378.113501,0 376.960429,0" id="Fill-28" fill="#FFFFFF"></path>
                <g id="Group-32" transform="translate(386.782007, 0.696078)">
                    <mask id="mask-12" fill="white">
                        <use xlink:href="#path-11"></use>
                    </mask>
                    <g id="Clip-31"></g>
                    <path d="M15.415602,53.0635094 C16.6126898,53.0635094 17.6116983,52.0824386 17.6116983,50.9068452 C17.6116983,49.7278688 16.6126898,48.746798 15.415602,48.746798 L4.62975514,48.746798 L4.62975514,8.43662949 C4.62975514,6.57428651 6.32806958,5.00457326 8.22446329,5.00457326 L15.415602,5.00457326 C16.6126898,5.00457326 17.6116983,4.02350248 17.6116983,2.84790905 C17.6116983,1.66893261 16.6126898,0.689553337 15.415602,0.689553337 L8.22446329,0.689553337 C3.82882592,0.689553337 0.235840201,4.12160956 0.235840201,8.43662949 L0.235840201,61.5954422 C0.235840201,65.9121536 3.82882592,69.3442098 8.22446329,69.3442098 L15.415602,69.3442098 C16.6126898,69.3442098 17.6116983,68.3631391 17.6116983,67.1875456 C17.6116983,66.0085692 16.6126898,65.0291899 15.415602,65.0291899 L8.22446329,65.0291899 C6.32806958,65.0291899 4.62975514,63.4594767 4.62975514,61.5954422 L4.62975514,53.0635094 L15.415602,53.0635094 Z" id="Fill-30" fill="#FFFFFF" mask="url(#mask-12)"></path>
                </g>
            </g>
        </g>
    </g>
</svg>